<?xml version="1.0" encoding="utf-8"?>
<!-- Generator: Adobe Illustrator 16.0.0, SVG Export Plug-In . SVG Version: 6.00 Build 0)  -->
<!DOCTYPE svg PUBLIC "-//W3C//DTD SVG 1.1//EN" "http://www.w3.org/Graphics/SVG/1.1/DTD/svg11.dtd">
<svg version="1.1" id="レイヤー_1" xmlns="http://www.w3.org/2000/svg" xmlns:xlink="http://www.w3.org/1999/xlink" x="0px"
	 y="0px" width="24px" height="24px" viewBox="0 0 24 24" enable-background="new 0 0 24 24" xml:space="preserve">
<path fill="#FFFFFF" d="M12,1C5.662,1,0,5.226,0,11.007c0,2.05,0.739,4.063,2.047,5.625c0.055,1.83-1.023,4.456-1.993,6.368
	c2.602-0.471,6.301-1.508,7.978-2.536C17.268,22.711,24,17.059,24,11.007C24,5.195,18.299,1,12,1z M7,12.5
	c-0.829,0-1.5-0.671-1.5-1.5S6.171,9.5,7,9.5s1.5,0.671,1.5,1.5S7.829,12.5,7,12.5z M12,12.5c-0.829,0-1.5-0.671-1.5-1.5
	s0.671-1.5,1.5-1.5s1.5,0.671,1.5,1.5S12.829,12.5,12,12.5z M17,12.5c-0.828,0-1.5-0.671-1.5-1.5s0.672-1.5,1.5-1.5
	c0.829,0,1.5,0.671,1.5,1.5S17.829,12.5,17,12.5z"/>
</svg>
