<?xml version="1.0" encoding="utf-8"?>
<!-- Generator: Adobe Illustrator 16.0.0, SVG Export Plug-In . SVG Version: 6.00 Build 0)  -->
<!DOCTYPE svg PUBLIC "-//W3C//DTD SVG 1.1//EN" "http://www.w3.org/Graphics/SVG/1.1/DTD/svg11.dtd">
<svg version="1.1" id="レイヤー_1" xmlns="http://www.w3.org/2000/svg" xmlns:xlink="http://www.w3.org/1999/xlink" x="0px"
	 y="0px" width="24px" height="24px" viewBox="0 0 24 24" enable-background="new 0 0 24 24" xml:space="preserve">
<path fill="#FFFFFF" d="M15.137,3.945c-0.644-0.374-1.041-1.07-1.041-1.82V2.122C14.098,0.95,13.158,0,12,0S9.903,0.95,9.903,2.122
	v0.003c0.001,0.751-0.396,1.446-1.041,1.82C4.195,6.657,6.877,15.66,2,17.251V19h20v-1.749C17.123,15.66,19.805,6.657,15.137,3.945z
	 M12,1c0.552,0,1,0.449,1,1c0,0.552-0.448,1-1,1s-1-0.448-1-1C11,1.449,11.448,1,12,1z M15,21c0,1.598-1.393,3-2.971,3
	S9,22.598,9,21H15z"/>
</svg>
