<?xml version="1.0" encoding="utf-8"?>
<!-- Generator: Adobe Illustrator 16.0.0, SVG Export Plug-In . SVG Version: 6.00 Build 0)  -->
<!DOCTYPE svg PUBLIC "-//W3C//DTD SVG 1.1//EN" "http://www.w3.org/Graphics/SVG/1.1/DTD/svg11.dtd">
<svg version="1.1" id="レイヤー_1" xmlns="http://www.w3.org/2000/svg" xmlns:xlink="http://www.w3.org/1999/xlink" x="0px"
	 y="0px" width="44.991px" height="100px" viewBox="46.702 18 44.991 100" enable-background="new 46.702 18 44.991 100"
	 xml:space="preserve">
<g>
	<path fill="#66A0FF" d="M69.197,34.675c4.605,0,8.338-3.733,8.338-8.34c0-4.604-3.732-8.335-8.338-8.335s-8.337,3.731-8.337,8.335
		C60.86,30.942,64.592,34.675,69.197,34.675z"/>
	<path fill="#66A0FF" d="M60.355,86.107v28.018c0,2.141,1.735,3.876,3.876,3.876c2.144,0,3.878-1.735,3.878-3.876V86.107h2.137
		v28.018c0,2.141,1.737,3.876,3.879,3.876c2.143,0,3.877-1.735,3.877-3.876V86.107V51.749v-3.413h0.842l6.119,21.714
		c0.454,1.835,2.292,2.908,4.127,2.454c1.834-0.448,2.953-2.321,2.504-4.156l-6.14-21.781c-1.69-5.706-5.478-9.488-9.737-9.488
		c-3.159,0-6.52,0-6.52,0s-3.358,0-6.516,0c-4.261,0-8.051,3.782-9.741,9.488l-6.139,21.781c-0.451,1.834,0.668,3.708,2.501,4.156
		c1.837,0.454,3.677-0.619,4.128-2.454l6.119-21.714h0.806v3.551V86.107z"/>
</g>
</svg>
