<?xml version="1.0" encoding="utf-8"?>
<!-- Generator: Adobe Illustrator 16.0.0, SVG Export Plug-In . SVG Version: 6.00 Build 0)  -->
<!DOCTYPE svg PUBLIC "-//W3C//DTD SVG 1.1//EN" "http://www.w3.org/Graphics/SVG/1.1/DTD/svg11.dtd">
<svg version="1.1" id="_x32_" xmlns="http://www.w3.org/2000/svg" xmlns:xlink="http://www.w3.org/1999/xlink" x="0px" y="0px"
	 width="50px" height="50px" viewBox="0 0 50 50" enable-background="new 0 0 50 50" xml:space="preserve">
<g>
	<path d="M50,25C50,11.193,38.807,0,25,0S0,11.193,0,25s11.193,25,25,25S50,38.807,50,25z M6.25,25C6.25,14.661,14.661,6.25,25,6.25
		c4.043,0,7.789,1.291,10.854,3.477L9.727,35.854C7.541,32.789,6.25,29.043,6.25,25z M43.75,25c0,10.339-8.412,18.75-18.75,18.75
		c-4.043,0-7.789-1.291-10.854-3.477l26.128-26.128C42.459,17.211,43.75,20.957,43.75,25z"/>
</g>
</svg>
