<?xml version="1.0" encoding="utf-8"?>
<!-- Generator: Adobe Illustrator 16.0.0, SVG Export Plug-In . SVG Version: 6.00 Build 0)  -->
<!DOCTYPE svg PUBLIC "-//W3C//DTD SVG 1.1//EN" "http://www.w3.org/Graphics/SVG/1.1/DTD/svg11.dtd">
<svg version="1.1" id="レイヤー_1" xmlns="http://www.w3.org/2000/svg" xmlns:xlink="http://www.w3.org/1999/xlink" x="0px"
	 y="0px" width="44.991px" height="100px" viewBox="-0.496 0 44.991 100" enable-background="new -0.496 0 44.991 100"
	 xml:space="preserve">
<g>
	<path fill="#FABE00" d="M22,16.675c4.605,0,8.337-3.733,8.337-8.34C30.337,3.731,26.605,0,22,0c-4.605,0-8.337,3.731-8.337,8.335
		C13.663,12.942,17.395,16.675,22,16.675z"/>
	<path fill="#FABE00" d="M44.396,50.348l-6.139-21.781c-1.691-5.706-5.479-9.488-9.738-9.488c-3.158,0-6.519,0-6.519,0
		s-3.358,0-6.516,0c-4.261,0-8.051,3.782-9.741,9.488l-6.139,21.781c-0.451,1.834,0.668,3.708,2.501,4.156
		c1.837,0.454,3.677-0.619,4.128-2.454l6.119-21.714h1.807L3.513,68.106h9.646v28.018c0,2.141,1.735,3.876,3.876,3.876
		c2.144,0,3.878-1.735,3.878-3.876V68.106h2.136v28.018c0,2.141,1.738,3.876,3.879,3.876c2.143,0,3.877-1.735,3.877-3.876V68.106
		h9.688L29.843,30.336h1.803l6.119,21.714c0.455,1.835,2.293,2.908,4.127,2.454C43.726,54.056,44.845,52.183,44.396,50.348z"/>
</g>
</svg>
