<?xml version="1.0" encoding="utf-8"?>
<!-- Generator: Adobe Illustrator 16.0.0, SVG Export Plug-In . SVG Version: 6.00 Build 0)  -->
<!DOCTYPE svg PUBLIC "-//W3C//DTD SVG 1.1//EN" "http://www.w3.org/Graphics/SVG/1.1/DTD/svg11.dtd">
<svg version="1.1" id="レイヤー_1" xmlns="http://www.w3.org/2000/svg" xmlns:xlink="http://www.w3.org/1999/xlink" x="0px"
	 y="0px" width="200px" height="200px" viewBox="0 0 200 200" enable-background="new 0 0 200 200" xml:space="preserve">
<circle fill="#F78207" cx="100" cy="100" r="100"/>
<path id="check-mark-5" d="M100,63.75c19.986,0,36.25,16.261,36.25,36.25c0,19.99-16.264,36.25-36.25,36.25
	c-19.987,0-36.25-16.26-36.25-36.25C63.75,80.011,80.013,63.75,100,63.75z M100,56.5c-24.023,0-43.5,19.476-43.5,43.5
	c0,24.023,19.477,43.5,43.5,43.5c24.023,0,43.5-19.477,43.5-43.5C143.5,75.976,124.023,56.5,100,56.5z M115.924,83.688
	l-20.455,20.968l-9.583-9.086l-6.73,6.735l16.312,15.82l27.188-27.705L115.924,83.688z"/>
</svg>
