<?xml version="1.0" encoding="iso-8859-1"?>
<!-- Generator: Adobe Illustrator 16.0.0, SVG Export Plug-In . SVG Version: 6.00 Build 0)  -->
<!DOCTYPE svg PUBLIC "-//W3C//DTD SVG 1.1//EN" "http://www.w3.org/Graphics/SVG/1.1/DTD/svg11.dtd">
<svg version="1.1" xmlns="http://www.w3.org/2000/svg" xmlns:xlink="http://www.w3.org/1999/xlink" x="0px" y="0px"
	 width="679.225px" height="421.509px" viewBox="0 0 679.225 421.509" style="enable-background:new 0 0 679.225 421.509;"
	 xml:space="preserve">
<g id="&#x30EC;&#x30A4;&#x30E4;&#x30FC;_1">
</g>
<g id="&#x30EC;&#x30A4;&#x30E4;&#x30FC;_2">
	<g>
		<path style="fill:#F08300;" d="M339.547,0c-96.324,0-174.412,77.89-174.412,173.972s78.088,173.973,174.412,173.973
			s174.411-77.891,174.411-173.973S435.871,0,339.547,0z M339.547,328.903c-88.987,0-161.126-71.957-161.126-160.72
			c0-88.764,72.139-160.722,161.126-160.722S500.674,79.42,500.674,168.184C500.674,256.946,428.534,328.903,339.547,328.903z"/>
		<path style="fill:#FABE00;" d="M372.752,143.036c-54.818,0-137.912,32.291-191.369,55.914
			c14.392,74.043,79.727,129.953,158.164,129.953c84.543,0,153.87-64.95,160.585-147.555
			C468.646,170.095,445.207,143.036,372.752,143.036z"/>
		<path style="fill:#F5A200;" d="M316.24,151.436c-67.637-18.333-119.471,12.042-137.609,25.023
			c4.318,84.918,74.711,152.444,160.916,152.444c88.987,0,161.127-71.957,161.127-160.72c0-3.636-0.134-7.239-0.372-10.814
			C399.816,207.204,397.492,173.459,316.24,151.436z"/>
		<path style="fill:#F08300;" d="M339.547,328.903c67.365,0,125.064-41.242,149.132-99.791
			c-19.716-16.87-56.807-44.306-89.528-44.306c-47.247,0-64.532,36.563-135.978,18.706c-13.085-3.27-51.625,1.615-78.588,8.843
			C203.826,279.641,265.918,328.903,339.547,328.903z"/>
		<path style="fill:#EB6100;" d="M281.576,178.015c-48.799-3.556-86.479,4.78-102.039,9.087
			c9.389,79.846,77.44,141.802,160.01,141.802c63.193,0,117.879-36.293,144.279-89.117c-58.746-3.406-96.876-35.207-96.876-35.207
			S346.242,182.726,281.576,178.015z"/>
		<g>
			<path style="fill:#FFFFFF;" d="M472.306,259.433c-0.929-2.413-1.875-4.874-2.854-7.414c-18.65-48.275-29.905-76.534-33.76-84.777
				c-1.26-2.59-2.638-3.885-4.132-3.885c-2.048,0-5.135,0.138-9.266,0.412c-4.133,0.275-7.261,0.411-9.386,0.411
				c-2.203,0-5.529-0.194-9.974-0.587c-4.447-0.393-7.732-0.59-9.857-0.59c-1.259,0-2.361,1.492-3.305,4.475
				c-1.652,5.18-12.12,33.793-31.4,85.837c-17.785,48.12-26.677,73.199-26.677,75.24c0,0.112,0.026,0.218,0.055,0.324
				c2.584,0.123,5.183,0.19,7.797,0.19c14.432,0,28.416-1.903,41.725-5.453c0.285-0.97,0.562-2.029,0.828-3.187
				c1.652-7.143,3.146-11.342,4.485-12.599c0.865-0.707,7.987-1.059,21.366-1.059c5.082,0,9.545,0.018,13.407,0.054
				C441.604,294.9,459.004,278.687,472.306,259.433z M426.838,265.561c-0.552,1.256-3.423,1.883-8.617,1.883
				c-5.589,0-9.602-0.076-12.041-0.235c-4.722-0.156-7.082-0.941-7.082-2.354c0-2.119,2.125-9.302,6.374-21.548
				c3.935-11.539,6.729-19.034,8.381-22.489c1.652,3.14,4.25,10.361,7.791,21.665c3.62,11.698,5.43,18.84,5.43,21.431
				C427.073,264.618,426.995,265.169,426.838,265.561z"/>
			<path style="fill:#FFFFFF;" d="M307.027,325.794c7.282-4.12,13.821-9.582,19.592-16.432c1.653-2.041,2.479-3.689,2.479-4.946
				c0-0.862-2.875-5.651-8.618-14.364c-5.588-8.399-9.012-13.305-10.27-14.719c-0.787-0.863-1.574-1.295-2.361-1.295
				c-0.395,0-2.321,1.492-5.783,4.475c-4.172,3.531-8.264,6.279-12.276,8.242c-6.139,2.984-12.632,4.474-19.478,4.474
				c-11.569,0-20.816-4.395-27.739-13.188c-6.376-8.084-9.562-18.093-9.562-30.025c0-11.774,3.187-21.665,9.562-29.672
				c6.923-8.634,16.17-12.952,27.739-12.952c6.688,0,13.141,1.57,19.359,4.71c4.09,2.12,8.263,5.063,12.513,8.831
				c3.54,3.141,5.507,4.71,5.901,4.71c0.945,0,1.73-0.312,2.361-0.942c1.416-1.177,4.858-6.554,10.328-16.131
				c5.469-9.576,8.204-15.11,8.204-16.603c0-1.334-0.787-2.864-2.36-4.592c-14.481-15.62-34.469-23.433-59.966-23.433
				c-23.452,0-42.772,8.715-57.959,26.141c-9.751,11.145-16.22,23.918-19.439,38.301
				C208.793,276.688,252.973,314.744,307.027,325.794z"/>
		</g>
	</g>
	<g>
		<path style="fill:#F08300;" d="M37.69,414.224l0.8,6.221H22.871l-0.748-6.221H0v-14.57h20.256l-0.958-7.551H0.051v-14.73h17.327
			l-0.426-3.35h15.46l0.479,3.35h15.355v14.73H34.812l0.958,7.551h12.636v14.57H37.69z"/>
		<path style="fill:#F08300;" d="M78.936,414.917h-4.853v-12.233h4.853c3.783,0,4.479-0.902,4.479-3.774v-1.063H71.896l0.749,23.026
			H60.597l-0.854-23.026h-4.054v-11.967h3.625l-0.051-2.765h12.1l0.107,2.765h24.258v9.731
			C95.729,409.702,92.051,414.917,78.936,414.917z"/>
		<path style="fill:#F08300;" d="M103.463,401.673V374.5h15.674v27.173H103.463z M122.974,420.71h-13.698v-15.472h13.219
			c7.836,0,10.932-3.032,10.932-12.071V374.5h15.727v18.933C149.152,415.021,139.662,420.71,122.974,420.71z"/>
		<path style="fill:#F08300;" d="M186.947,407.79h-5.652c-0.905,7.871-6.449,12.92-16.9,12.92h-9.383v-15.047h6.985
			c3.571,0,4.158-0.957,4.158-3.882v-9.042h19.405c1.066,0,2.346-0.797,2.346-2.393v-1.115h-32.895v-14.199h48.301v15.634
			C203.312,401.462,197.342,407.79,186.947,407.79z"/>
		<path style="fill:#F08300;" d="M240.4,407.79h-5.652c-0.905,7.871-6.45,12.92-16.898,12.92h-9.386v-15.047h6.986
			c3.57,0,4.157-0.957,4.157-3.882v-9.042h19.406c1.065,0,2.345-0.797,2.345-2.393v-1.115h-32.895v-14.199h48.301v15.634
			C256.765,401.462,250.795,407.79,240.4,407.79z"/>
		<path style="fill:#F08300;" d="M299.785,407.417c-7.837,0-14.873-1.064-20.577-3.296v16.589H262.84v-46.795h16.368v11.062
			c0,5.851,13.169,6.807,20.577,6.807h6.664v15.634H299.785z M295.307,379.978v-6.062h12.955v6.062H295.307z M295.307,387.955
			v-6.011h12.955v6.011H295.307z"/>
		<path style="fill:#F08300;" d="M312.627,421.35v-16.644c3.945-0.798,5.171-3.137,5.171-7.554v-22.811h15.196v22.44
			C332.994,411.352,326.329,419.808,312.627,421.35z M356.824,388.434v8.719c0,4.417,1.385,6.86,5.17,7.554v16.644
			c-13.646-1.542-20.363-9.998-20.363-24.567v-22.44h20.844v6.06h-11.036v2.074h11.036v5.958H356.824z"/>
		<path style="fill:#F08300;" d="M412.02,389.71c-4.799,0-7.25,0.797-9.224,1.754v30.045H387.23v-21.431l-1.92,1.063
			c-2.773,1.542-7.57,3.084-15.568,3.084h-2.879v-15.58h3.52c4.371,0,5.65-0.744,8.903-2.447l17.806-9.358
			c3.732-1.969,6.611-2.713,11.836-2.713h7.783v15.583H412.02z"/>
		<path style="fill:#F08300;" d="M468.418,388.592v4.468c0,17.602-6.879,27.546-27.401,27.546h-13.33V405.45h13.276
			c10.023,0,11.516-2.127,11.62-10.422H439.63v8.453h-15.673v-8.453h-2.934v-15.316h2.934V374.5h15.673v5.212h12.953V374.5h18.446
			v6.009h-11.781v2.021h11.781v6.062H468.418z"/>
		<path style="fill:#F08300;" d="M476.151,404.865v-15.849h45.689v15.849H476.151z"/>
		<path style="fill:#F08300;" d="M527.673,417.788v-15.902h15.729v15.902H527.673z"/>
		<path style="fill:#F08300;" d="M562.291,418.054c-11.303,0-14.499-5.053-14.499-13.667v-4.679c0-8.511,3.464-13.722,14.448-13.722
			h24.363v14.146h-21.751c-1.653,0-2.079,0.531-2.079,1.275v1.276c0,0.905,0.691,1.276,2.13,1.276h21.7v14.094H562.291z"/>
		<path style="fill:#F08300;" d="M616.727,418.319h-11.994c-9.811,0-14.073-4.574-14.073-13.081v-6.595
			c0-8.349,4.37-12.977,14.073-12.977h11.994c9.969,0,13.81,5.16,13.81,12.815v7.022
			C630.536,413.214,626.695,418.319,616.727,418.319z M616.143,401.303c0-1.013-0.588-2.022-2.133-2.022h-6.72
			c-1.65,0-2.184,1.064-2.184,2.022v1.381c0,1.225,0.372,2.074,2.184,2.074h6.72c1.758,0,2.133-1.169,2.133-2.074V401.303z"/>
		<path style="fill:#F08300;" d="M665.044,418.054v-16.219c0-1.596-0.534-2.289-2.667-2.289v18.508h-11.032v-18.508
			c-1.6,0.107-2.72,0.799-2.72,2.289v16.219h-14.128v-21.006c0-6.701,5.012-11.115,12.794-11.115h19.14
			c7.731,0,12.794,4.414,12.794,11.115v21.006H665.044z"/>
	</g>
</g>
</svg>
