<?xml version="1.0" encoding="iso-8859-1"?>
<!-- Generator: Adobe Illustrator 16.0.0, SVG Export Plug-In . SVG Version: 6.00 Build 0)  -->
<!DOCTYPE svg PUBLIC "-//W3C//DTD SVG 1.1//EN" "http://www.w3.org/Graphics/SVG/1.1/DTD/svg11.dtd">
<svg version="1.1" id="&#x30EC;&#x30A4;&#x30E4;&#x30FC;_1"
	 xmlns="http://www.w3.org/2000/svg" xmlns:xlink="http://www.w3.org/1999/xlink" x="0px" y="0px" width="500px" height="329.374px"
	 viewBox="0 0 500 329.374" style="enable-background:new 0 0 500 329.374;" xml:space="preserve">
<g>
	<defs>
		<polygon id="SVGID_1_" points="189.923,0 235.569,89.008 258.707,89.395 258.52,123.534 253.034,123.595 285.275,187.251 
			434.27,187.49 461.065,249.282 474.86,249.066 475.244,285.471 471.819,285.704 489.378,325.107 479.398,329.374 500,329.374 
			500,0 		"/>
	</defs>
	<clipPath id="SVGID_2_">
		<use xlink:href="#SVGID_1_"  style="overflow:visible;"/>
	</clipPath>
	
		<linearGradient id="SVGID_3_" gradientUnits="userSpaceOnUse" x1="4.882812e-04" y1="329.374" x2="1.0005" y2="329.374" gradientTransform="matrix(310.0773 0 0 -310.0773 190 102296.0312)">
		<stop  offset="0" style="stop-color:#00A0DD"/>
		<stop  offset="0.0108" style="stop-color:#00A0DD"/>
		<stop  offset="0.2271" style="stop-color:#00A8E0"/>
		<stop  offset="0.5132" style="stop-color:#00ADE1"/>
		<stop  offset="1" style="stop-color:#34B9E1"/>
	</linearGradient>
	<rect x="189.923" style="clip-path:url(#SVGID_2_);fill:url(#SVGID_3_);" width="310.077" height="329.374"/>
</g>
<polygon style="fill:#0095D8;" points="0,194.476 0,267.131 68.261,267.131 81.248,306.729 24.414,306.729 24.247,289.105 
	0,289.336 0.293,329.162 112.352,329.162 84.648,244.7 22.576,244.7 22.576,216.908 56.179,216.908 59.709,230.758 81.593,225.254 
	73.75,194.476 "/>
<polygon style="fill:#00ADE1;" points="270.608,194.462 291.885,272.868 355.068,272.868 355.068,306.507 324.495,306.66 
	317.642,284.331 296.195,290.914 308,329.374 377.501,329.374 377.501,250.437 309.042,250.437 299.941,216.896 355.068,216.896 
	355.068,236.91 377.501,236.91 377.501,194.462 "/>
<g>
	<defs>
		<rect id="SVGID_4_" width="500" height="329.374"/>
	</defs>
	<clipPath id="SVGID_5_">
		<use xlink:href="#SVGID_4_"  style="overflow:visible;"/>
	</clipPath>
	<path style="clip-path:url(#SVGID_5_);fill:#0095D8;" d="M126.572,329.219L48.447,96.639h15.616c0.881,0,1.746-0.022,2.594-0.066
		c11.708-0.599,22.059-6.238,29.151-15.878c7.552-10.263,10.074-23.309,6.924-35.796c-5.41-21.452-17.154-22.415-17.27-22.415
		H22.725v163.72H0.293V-0.027h85.169c1.187,0,29.19,0.448,39.017,39.401c4.805,19.049,0.933,38.983-10.624,54.692
		c-8.683,11.803-20.976,19.965-34.761,23.336L147.83,322.03L126.572,329.219z"/>
	<polygon style="clip-path:url(#SVGID_5_);fill:#0095D8;" points="126.567,329.212 150.369,329.374 147.81,322.022 	"/>
	<polygon style="clip-path:url(#SVGID_5_);fill:#00A0DD;" points="246.451,186.725 177.667,50.963 120.707,173.272 100.372,163.803 
		176.833,0 266.463,176.586 	"/>
	<line style="clip-path:url(#SVGID_5_);fill:#FFFFFF;" x1="246.981" y1="106.482" x2="169.039" y2="106.482"/>
	<rect x="169.04" y="95.265" style="clip-path:url(#SVGID_5_);fill:#00A0DD;" width="77.942" height="22.433"/>
	<polygon style="clip-path:url(#SVGID_5_);fill:#00A0DD;" points="100.364,163.791 106.71,182.796 116.016,182.796 120.694,173.299 
			"/>
	<path style="clip-path:url(#SVGID_5_);fill:#00A0DD;" d="M266.455,176.579l5.907,10.625h-25.653l-3.857-7.394
		C242.852,179.811,266.884,176.686,266.455,176.579"/>
	<polygon style="clip-path:url(#SVGID_5_);fill:#34B9E1;" points="458.482,329.374 410.169,216.895 407.795,216.895 
		407.795,329.375 385.363,329.375 385.363,194.463 424.948,194.463 479.471,321.39 	"/>
	<rect x="417.982" y="256.852" style="clip-path:url(#SVGID_5_);fill:#34B9E1;" width="48.378" height="22.434"/>
	
		<rect x="192.986" y="248.847" transform="matrix(0.315 0.9491 -0.9491 0.315 420.4414 -62.3833)" style="clip-path:url(#SVGID_5_);fill:#00A0DD;" width="120.9" height="22.435"/>
	<polygon style="clip-path:url(#SVGID_5_);fill:#00A0DD;" points="256.455,194.837 208.01,194.837 214.686,218.113 263.128,217.59 	
		"/>
	<polygon style="clip-path:url(#SVGID_5_);fill:#00A0DD;" points="292.276,309.225 244.849,309.225 251.62,329.373 296.49,329.373 	
		"/>
	<polygon style="clip-path:url(#SVGID_5_);fill:#0095D8;" points="210.688,329.374 168.96,201.558 190.28,194.581 231.984,322 	"/>
	<rect x="120.138" y="246.137" style="clip-path:url(#SVGID_5_);fill:#0095D8;" width="74.813" height="22.434"/>
	<polyline style="clip-path:url(#SVGID_5_);fill:#0095D8;" points="190.272,194.591 166.479,194.404 169.037,201.731 	"/>
	<polyline style="clip-path:url(#SVGID_5_);fill:#0095D8;" points="210.688,329.374 234.542,329.374 231.932,321.898 	"/>
</g>
</svg>
